<svg width="1920" height="1080" fill="none" xmlns="http://www.w3.org/2000/svg"><path fill="url('#paint0_linear_8_15')" d="M0 0h1920v1080H0z"/><path d="M1654.73 955.333H981.276c-16.568 0-30 13.432-30 30V1024c0 16.57 13.432 30 30 30h673.454c16.57 0 30-13.43 30-30v-38.667c0-16.568-13.43-30-30-30Z" fill="#fff"/><path d="M1665.08 1003.33c0 20.67-18.19 37.34-40.75 37.34-22.55 0-40.74-16.67-40.74-37.34 0-20.663 18.19-37.33 40.74-37.33 22.56.667 40.75 17.333 40.75 37.33Z" fill="#4FDBC4"/><path d="M1647.42 1003.71c.13.93-.97 1.16-1.82 1.55l-33.66 15.42c-1.91.87-5.07 2.09-5.07-.01v-13.34c0-.66.73-1.33 1.46-1.33l15.28-.67c.72 0 1.45-.66 1.45-1.33s-.73-1.33-1.45-1.33l-15.28-.67c-.73 0-1.46-.67-1.46-1.33v-14.003c0-1.861 3.06-.932 4.75-.157l34.34 15.73c.62.28 1.37.8 1.46 1.47Z" fill="#fff"/><defs><linearGradient id="paint0_linear_8_15" x1="1834" y1="86" x2="75.5" y2="972.5" gradientUnits="userSpaceOnUse"><stop stop-color="#01B2BE"/><stop offset=".092" stop-color="#018091"/><stop offset=".163" stop-color="#006577"/><stop offset=".229" stop-color="#014F62"/><stop offset=".279" stop-color="#004358"/><stop offset=".429" stop-color="#011723"/><stop offset=".612" stop-color="#02080F"/><stop offset="1" stop-color="#0A0410"/></linearGradient></defs></svg>