<svg width="217" height="170" fill="none" xmlns="http://www.w3.org/2000/svg"><path d="M152.294 170h-86.8c-27.618 0-50.501-26.793-50.501-59.13s22.883-59.13 50.502-59.13h86.799c27.619 0 50.502 26.793 50.502 59.13S179.913 170 152.294 170Z" fill="#fff"/><path d="M155.451 148.75H61.549c-18.15 0-32.353-16.63-32.353-37.88 0-21.25 14.204-37.88 32.353-37.88h93.902c18.149 0 32.353 16.63 32.353 37.88 0 20.326-14.204 37.88-32.353 37.88Z" fill="#80DACB"/><path d="M29.196 110.87c0 12.934-6.312 23.097-14.992 23.097S0 122.88 0 110.87c0-12.011 6.313-23.098 14.993-23.098s14.203 10.163 14.203 23.098ZM217 110.87c0 12.934-6.313 23.097-14.993 23.097-7.891 0-14.992-10.163-14.992-23.097 0-12.935 6.312-23.098 14.992-23.098C210.687 86.848 217 97.935 217 110.87ZM108.895 70.217h-.789c-2.368-1.847-3.157-13.858-2.368-21.25 0-11.087 3.157-30.489 16.571-37.88.789-.924 1.578 0 2.367.924.79.924 0 1.848-.789 2.772-5.523 2.771-9.469 9.239-11.836 17.554-3.945 14.783-1.578 31.413-.789 34.185.789.924.789 1.848 0 2.771-1.578.924-2.367.924-2.367.924Z" fill="#fff"/><path d="M133.356 12.935c0 7.391-4.734 12.935-11.047 12.935-6.313 0-11.047-5.544-11.047-12.935C111.262 5.543 115.996 0 122.309 0c6.313 0 11.047 5.543 11.047 12.935Z" fill="#fff"/><path d="M76.542 110.87c0 10.163-7.102 18.478-15.782 18.478s-15.782-8.315-15.782-18.478c0-10.163 7.102-18.479 15.782-18.479 8.68-.924 15.782 7.392 15.782 18.479ZM172.811 110.87c0 10.163-7.102 18.478-15.782 18.478s-15.782-8.315-15.782-18.478c0-10.163 7.102-18.479 15.782-18.479 8.68-.924 15.782 7.392 15.782 18.479Z" fill="#3951D4"/></svg>