<svg width="86" height="71" fill="none" xmlns="http://www.w3.org/2000/svg"><path d="M52.953 66.271c17.013 0 30.804-13.91 30.804-31.071 0-17.16-13.791-31.071-30.804-31.071C35.941 4.129 22.15 18.04 22.15 35.2c0 17.16 13.792 31.071 30.804 31.071Z" fill="url('#paint0_radial_2_33')"/><path d="M52.953 66.271c17.013 0 30.804-13.91 30.804-31.071 0-17.16-13.791-31.071-30.804-31.071C35.941 4.129 22.15 18.04 22.15 35.2c0 17.16 13.792 31.071 30.804 31.071Z" fill="url('#paint1_radial_2_33')"/><path d="M53.084 47.907c-6.897 0-12.523-5.656-12.523-12.632s5.607-12.632 12.523-12.632c6.916 0 12.523 5.656 12.523 12.632s-5.626 12.633-12.523 12.633Zm0-24.68c-6.598 0-11.963 5.412-11.963 12.067 0 6.656 5.365 12.067 11.963 12.067 6.598 0 11.963-5.411 11.963-12.067 0-6.655-5.383-12.066-11.963-12.066Z" fill="#fff"/><path opacity=".35" d="M86 23.85C81.327 9.974 68.3 0 52.953 0c-19.27 0-34.897 15.762-34.897 35.2 0 19.438 15.626 35.2 34.897 35.2C68.3 70.4 81.308 60.426 86 46.55v-22.7ZM52.953 67.308c-17.57 0-31.832-14.367-31.832-32.108 0-17.741 14.262-32.108 31.832-32.108S84.785 17.477 84.785 35.2 70.523 67.308 52.953 67.308Z" fill="#fff"/><path d="M53.084 61.972c-14.58 0-26.449-11.972-26.449-26.678 0-14.706 11.87-26.678 26.45-26.678 14.578 0 26.448 11.972 26.448 26.678 0 14.706-11.87 26.678-26.449 26.678Zm0-52.81c-14.28 0-25.888 11.71-25.888 26.113 0 14.405 11.608 26.113 25.888 26.113 14.28 0 25.888-11.708 25.888-26.113 0-14.385-11.607-26.112-25.888-26.112Z" fill="#fff"/><path d="M53.084 59.446c-13.215 0-23.963-10.841-23.963-24.17 0-13.33 10.748-24.171 23.963-24.171 13.215 0 23.963 10.84 23.963 24.17 0 13.33-10.748 24.171-23.963 24.171Zm0-48.134c-13.103 0-23.776 10.766-23.776 23.982 0 13.217 10.673 23.982 23.776 23.982S76.86 48.511 76.86 35.294c0-13.235-10.673-23.982-23.776-23.982Z" fill="#fff"/><path d="M66.056 60.05c-1.065 0-1.944-.887-1.944-1.961 0-1.075.879-1.961 1.944-1.961 1.066 0 1.944.886 1.944 1.96 0 1.075-.879 1.961-1.944 1.961Zm0-3.734c-.972 0-1.757.792-1.757 1.773 0 .98.785 1.772 1.757 1.772.972 0 1.757-.792 1.757-1.772s-.804-1.773-1.757-1.773ZM10.28 52.659H.804v-.189h9.402L18 44.608h10.411v.189H18.093l-7.813 7.862ZM42.3 59.2H1.083v.19H42.3v-.19Z" fill="#fff"/><path d="M35.925 65.536H23.981v-.189h11.87l6.205-6.278.15.132-6.28 6.335ZM18.187 47.229c-1.42 0-2.58-1.17-2.58-2.602 0-1.433 1.16-2.602 2.58-2.602 1.42 0 2.58 1.169 2.58 2.602 0 1.433-1.16 2.602-2.58 2.602Zm0-5.015a2.408 2.408 0 0 0-2.393 2.413c0 1.32 1.066 2.413 2.393 2.413a2.408 2.408 0 0 0 2.392-2.413 2.396 2.396 0 0 0-2.392-2.413Z" fill="#fff"/><path d="M24.019 68.609c-1.701 0-3.066-1.395-3.066-3.092 0-1.716 1.383-3.092 3.066-3.092 1.7 0 3.065 1.395 3.065 3.092a3.069 3.069 0 0 1-3.065 3.092Zm0-5.996c-1.59 0-2.879 1.301-2.879 2.904s1.29 2.903 2.879 2.903 2.878-1.3 2.878-2.903-1.29-2.904-2.878-2.904Z" fill="#fff"/><path d="M24.019 67.666a2.14 2.14 0 0 1-2.131-2.15 2.14 2.14 0 0 1 2.13-2.148 2.14 2.14 0 0 1 2.131 2.149 2.14 2.14 0 0 1-2.13 2.15Zm0-4.11c-1.066 0-1.944.886-1.944 1.96 0 1.075.878 1.962 1.944 1.962 1.065 0 1.944-.886 1.944-1.961a1.95 1.95 0 0 0-1.944-1.96ZM81.084 20.211a2.14 2.14 0 0 1-2.13-2.15 2.14 2.14 0 0 1 2.13-2.148 2.14 2.14 0 0 1 2.13 2.149c0 1.169-.952 2.15-2.13 2.15Zm0-4.129c-1.065 0-1.944.886-1.944 1.961 0 1.075.879 1.96 1.944 1.96 1.066 0 1.944-.885 1.944-1.96s-.879-1.96-1.944-1.96ZM86 3.884H72.505l-5.066 5.11H53.084v.188h14.43l5.065-5.11H86v-.188Z" fill="#fff"/><path d="M85.981 17.873H69.514v.189h16.467v-.189ZM86 35.181h-9.047v.189H86v-.189ZM12.467 59.484l-.13-.132 7.588-7.674h12.467v.189H20l-7.533 7.617Z" fill="#fff"/><path opacity=".45" d="m16.897 59.446 2.692-2.734-1.42-1.452-4.15 4.186 4.15 4.186 1.42-1.452-2.692-2.734ZM28.336 59.446l2.71-2.734-1.439-1.452-4.15 4.186 4.15 4.186 1.44-1.452-2.71-2.734ZM6.972 59.446l2.71-2.734-1.439-1.452-4.15 4.186 4.15 4.186 1.44-1.452-2.711-2.734ZM23.14 51.904l1.626-1.64-.86-.867-2.485 2.508 2.486 2.507.86-.867-1.627-1.64ZM27.103 51.904l1.626-1.64-.86-.867-2.486 2.508 2.486 2.507.86-.867-1.626-1.64ZM80.692 4.186l-1.627 1.64.86.867 2.505-2.507-2.505-2.508-.86.867 1.627 1.64ZM83.327 9.069l-.934.942.485.49 1.44-1.432-1.44-1.433-.486.49.935.943ZM76.729 4.186l-1.626 1.64.86.867 2.486-2.507-2.486-2.508-.86.867 1.626 1.64Z" fill="#fff"/><path d="M86 9.031c-7.794.057-18.112.075-18.486-.019l-.037.094-.075.057c.019.038.075.113 6.766.113 2.71 0 6.505-.019 11.813-.057v-.188H86ZM86 28.262h-7.738v.188H86v-.188Z" fill="#fff"/><path d="M86 13.5h-7.87l-4.26-4.3-.132.133 4.318 4.355H86v-.189ZM53.084 47.907c-6.897 0-12.523-5.656-12.523-12.632s5.607-12.632 12.523-12.632c6.916 0 12.523 5.656 12.523 12.632s-5.626 12.633-12.523 12.633Zm0-24.68c-6.598 0-11.963 5.412-11.963 12.067 0 6.656 5.365 12.067 11.963 12.067 6.598 0 11.963-5.411 11.963-12.067 0-6.655-5.383-12.066-11.963-12.066Z" fill="#fff"/><path d="M53.01 47.907v8.598h-.188v-8.598h.187ZM49.794 23.134l-.168.056-.019-.038-1.794-6.75.187-.037 1.794 6.73v.039ZM56.28 47.493l3.477 13.084-.187.057-3.477-13.104.187-.037ZM65.14 56.354c-.056.038-.112.056-.168.094l-5.813-10.124c.056-.038.112-.057.168-.094l5.813 10.124ZM35.139 24.783l-.094.163 7.074 4.12.093-.164-7.073-4.12ZM63.944 41.554l11.87 6.9-.094.17-11.87-6.92.094-.15ZM76.112 41.403l-.056.188-10.934-2.96c.018-.056.037-.113.056-.188l10.934 2.96ZM40.505 35.143h-6.898v.189h6.898v-.189ZM40.922 38.379l-9.657 2.617.049.182 9.657-2.617-.049-.182ZM44.075 44.042l-4.449 4.469.131.15 4.449-4.487-.131-.132ZM46.748 46.173l-4 6.995-.169-.095 4-6.994a.756.756 0 0 1 .169.094ZM59.252 24.302l5.72-10.049-.168-.094-5.72 10.05.168.093ZM56.262 23.077l2.878-10.898-.168-.056-2.897 10.897.187.057Z" fill="#fff"/><path d="M53.084 11.369a2.272 2.272 0 0 0 2.262-2.281 2.272 2.272 0 0 0-2.262-2.282 2.272 2.272 0 0 0-2.262 2.282 2.272 2.272 0 0 0 2.262 2.28Z" fill="url('#paint2_radial_2_33')"/><path d="M69.514 18.967c.547 0 .99-.447.99-1 0-.551-.443-.999-.99-.999a.995.995 0 0 0-.99 1c0 .552.443.999.99.999Z" fill="url('#paint3_radial_2_33')"/><path d="M81.084 19.627c.867 0 1.57-.71 1.57-1.584 0-.875-.703-1.584-1.57-1.584-.867 0-1.57.71-1.57 1.584 0 .875.703 1.584 1.57 1.584Z" fill="url('#paint4_radial_2_33')"/><path d="M67.608 11.576A2.403 2.403 0 0 0 70 9.163a2.403 2.403 0 0 0-2.392-2.413 2.403 2.403 0 0 0-2.393 2.413 2.403 2.403 0 0 0 2.392 2.413Z" fill="url('#paint5_radial_2_33')"/><path d="M77.533 35.238a.713.713 0 0 1-.71.716.713.713 0 0 1-.71-.716c0-.396.317-.717.71-.717.392 0 .71.32.71.717Z" fill="url('#paint6_radial_2_33')"/><path d="M66.056 59.54c.795 0 1.44-.65 1.44-1.451 0-.802-.645-1.452-1.44-1.452-.795 0-1.44.65-1.44 1.452 0 .801.645 1.451 1.44 1.451Z" fill="url('#paint7_radial_2_33')"/><path d="M43.682 41.63a1.05 1.05 0 0 1-1.047 1.055 1.05 1.05 0 0 1-1.046-1.056 1.05 1.05 0 0 1 1.047-1.056c.579-.019 1.046.472 1.046 1.056Z" fill="url('#paint8_radial_2_33')"/><path d="M53.084 57.598c.547 0 .99-.447.99-.999s-.443-1-.99-1a.995.995 0 0 0-.99 1c0 .552.443 1 .99 1Z" fill="url('#paint9_radial_2_33')"/><path d="M42.785 53.978a.77.77 0 0 0 .766-.773.77.77 0 0 0-.766-.773.77.77 0 0 0-.766.773.77.77 0 0 0 .766.773Z" fill="url('#paint10_radial_2_33')"/><path d="M63.626 30.147c.65 0 1.178-.532 1.178-1.188 0-.656-.528-1.187-1.178-1.187-.65 0-1.177.531-1.177 1.187s.527 1.188 1.177 1.188Z" fill="url('#paint11_radial_2_33')"/><path d="M45.87 26.282a.92.92 0 0 0 .915-.924.92.92 0 0 0-.916-.924.92.92 0 0 0-.916.924c0 .51.41.924.916.924Z" fill="url('#paint12_radial_2_33')"/><path d="M59.477 47.266c.712 0 1.29-.582 1.29-1.3 0-.719-.578-1.301-1.29-1.301-.713 0-1.29.582-1.29 1.3 0 .719.577 1.301 1.29 1.301Z" fill="url('#paint13_radial_2_33')"/><path d="M56.43 60.407a1.22 1.22 0 0 0 1.215-1.225 1.22 1.22 0 0 0-1.215-1.226 1.22 1.22 0 0 0-1.215 1.226 1.22 1.22 0 0 0 1.215 1.225Z" fill="url('#paint14_radial_2_33')"/><path d="M41.963 60.502c.63 0 1.14-.515 1.14-1.15 0-.635-.51-1.15-1.14-1.15-.63 0-1.14.515-1.14 1.15 0 .635.51 1.15 1.14 1.15Z" fill="url('#paint15_radial_2_33')"/><path d="M33.495 51.773c0 .622-.486 1.112-1.102 1.112-.617 0-1.103-.49-1.103-1.112 0-.623.486-1.113 1.102-1.113.617 0 1.103.51 1.103 1.113Z" fill="url('#paint16_radial_2_33')"/><path d="M32.075 41.082c0 .32-.262.566-.561.566a.565.565 0 0 1 0-1.131c.3 0 .56.245.56.565Z" fill="url('#paint17_radial_2_33')"/><path d="M34.075 35.125a.48.48 0 0 1-.374.546.476.476 0 0 1-.542-.377.48.48 0 0 1 .374-.546c.261-.038.504.132.542.377Z" fill="url('#paint18_radial_2_33')"/><path d="M35.159 25.81a.901.901 0 0 0 .897-.904c0-.5-.402-.905-.897-.905a.901.901 0 0 0-.897.905c0 .5.401.905.897.905Z" fill="url('#paint19_radial_2_33')"/><path d="M75.906 49.774c.661 0 1.197-.54 1.197-1.207 0-.666-.536-1.206-1.197-1.206-.66 0-1.196.54-1.196 1.206 0 .667.536 1.207 1.197 1.207Z" fill="url('#paint20_radial_2_33')"/><path d="M76.542 41.403c0 .32-.262.584-.58.584a.585.585 0 0 1 0-1.169c.318 0 .58.264.58.585Z" fill="url('#paint21_radial_2_33')"/><path d="M64.766 14.895a.47.47 0 0 0 .468-.472.47.47 0 0 0-.468-.471.47.47 0 0 0-.467.471c0 .26.21.472.467.472Z" fill="url('#paint22_radial_2_33')"/><path d="M59.682 12.048c0 .339-.28.622-.617.622a.625.625 0 0 1-.616-.622c0-.34.28-.623.616-.623.337 0 .617.264.617.623Z" fill="url('#paint23_radial_2_33')"/><path d="M11.215 52.527c0 .546-.449.999-.99.999-.543 0-.991-.453-.991-1 0-.546.448-.999.99-.999.561 0 .991.453.991 1Z" fill="url('#paint24_radial_2_33')"/><path d="M2.206 59.37c0 .623-.486 1.113-1.103 1.113S0 59.993 0 59.37c0-.623.486-1.113 1.103-1.113s1.103.49 1.103 1.113Z" fill="url('#paint25_radial_2_33')"/><path d="M24.093 66.969c.826 0 1.496-.676 1.496-1.509 0-.833-.67-1.508-1.495-1.508-.826 0-1.496.675-1.496 1.508s.67 1.509 1.495 1.509Z" fill="url('#paint26_radial_2_33')"/><path d="M1.701 52.527a.753.753 0 0 1-.748.754.753.753 0 0 1-.747-.754c0-.415.336-.755.747-.755.412 0 .748.34.748.755Z" fill="url('#paint27_radial_2_33')"/><path d="M19.084 44.702a1.05 1.05 0 0 1-1.047 1.056 1.05 1.05 0 0 1-1.046-1.056 1.05 1.05 0 0 1 1.046-1.055c.58 0 1.047.47 1.047 1.055Z" fill="url('#paint28_radial_2_33')"/><path d="M30.318 33.126c0 .547-.449 1-.99 1-.543 0-.992-.453-.992-1 0-.547.449-1 .991-1s.99.453.99 1Z" fill="url('#paint29_radial_2_33')"/><path d="M29.608 44.702c0 .68-.543 1.207-1.197 1.207a1.198 1.198 0 0 1-1.196-1.207c0-.66.542-1.206 1.196-1.206.654-.02 1.197.528 1.197 1.206Z" fill="url('#paint30_radial_2_33')"/><path d="M42.785 14.291a.97.97 0 0 1-.972.98.97.97 0 0 1-.972-.98c0-.547.43-.98.972-.98a.97.97 0 0 1 .972.98Z" fill="url('#paint31_radial_2_33')"/><path d="M45.738 12.783a.921.921 0 0 1-.916.924.921.921 0 0 1-.915-.924c0-.51.41-.924.915-.924.486-.019.916.396.916.924Z" fill="url('#paint32_radial_2_33')"/><path d="M31.682 21.324a.773.773 0 0 1-.766.773.773.773 0 0 1 0-1.546c.411.019.766.358.766.773Z" fill="url('#paint33_radial_2_33')"/><path d="M48.636 16.346a.733.733 0 0 1-.73.735.733.733 0 0 1-.728-.735c0-.396.336-.735.729-.735.41-.019.729.32.729.735Z" fill="url('#paint34_radial_2_33')"/><path d="M74 24.529c.392 0 .71-.321.71-.717a.713.713 0 0 0-.71-.716c-.392 0-.71.32-.71.716 0 .396.318.717.71.717Z" fill="url('#paint35_radial_2_33')"/><path d="M78.262 29.374c.557 0 1.009-.456 1.009-1.018s-.452-1.018-1.01-1.018c-.557 0-1.009.456-1.009 1.018s.452 1.018 1.01 1.018Z" fill="url('#paint36_radial_2_33')"/><path d="M73.57 4.148a1.01 1.01 0 1 1-2.019 0 1.01 1.01 0 1 1 2.02 0Z" fill="url('#paint37_radial_2_33')"/><path d="M78.841 13.537a.753.753 0 0 1-.748.754.753.753 0 0 1-.747-.754c0-.415.336-.754.747-.754.43 0 .748.34.748.754Z" fill="url('#paint38_radial_2_33')"/><defs><radialGradient id="paint0_radial_2_33" cx="0" cy="0" r="1" gradientUnits="userSpaceOnUse" gradientTransform="matrix(30.8029 0 0 31.0702 29.258 4.601)"><stop stop-color="#0082FF"/><stop offset=".097" stop-color="#007FF9"/><stop offset=".221" stop-color="#0077EA"/><stop offset=".36" stop-color="#006ACF"/><stop offset=".509" stop-color="#0057AB"/><stop offset=".667" stop-color="#003F7C"/><stop offset=".833" stop-color="#002242"/><stop offset="1"/></radialGradient><radialGradient id="paint1_radial_2_33" cx="0" cy="0" r="1" gradientUnits="userSpaceOnUse" gradientTransform="matrix(30.8028 0 0 31.0701 77.109 70.392)"><stop stop-color="#FF2AAC"/><stop offset=".097" stop-color="#F929A8"/><stop offset=".221" stop-color="#EA269E"/><stop offset=".36" stop-color="#CF228C"/><stop offset=".509" stop-color="#AB1C73"/><stop offset=".667" stop-color="#7C1453"/><stop offset=".833" stop-color="#420B2D"/><stop offset="1"/></radialGradient><radialGradient id="paint2_radial_2_33" cx="0" cy="0" r="1" gradientUnits="userSpaceOnUse" gradientTransform="matrix(2.25817 0 0 2.27776 53.087 9.092)"><stop stop-color="#fff"/><stop offset=".131" stop-color="#FBFBFB"/><stop offset=".257" stop-color="#F0F0F0"/><stop offset=".382" stop-color="#DCDCDC"/><stop offset=".505" stop-color="#C1C1C1"/><stop offset=".627" stop-color="#9E9E9E"/><stop offset=".749" stop-color="#727272"/><stop offset=".871" stop-color="#3F3F3F"/><stop offset=".989" stop-color="#060606"/><stop offset="1"/></radialGradient><radialGradient id="paint3_radial_2_33" cx="0" cy="0" r="1" gradientUnits="userSpaceOnUse" gradientTransform="matrix(.98534 0 0 .9939 69.522 17.975)"><stop stop-color="#fff"/><stop offset=".131" stop-color="#FBFBFB"/><stop offset=".257" stop-color="#F0F0F0"/><stop offset=".382" stop-color="#DCDCDC"/><stop offset=".505" stop-color="#C1C1C1"/><stop offset=".627" stop-color="#9E9E9E"/><stop offset=".749" stop-color="#727272"/><stop offset=".871" stop-color="#3F3F3F"/><stop offset=".989" stop-color="#060606"/><stop offset="1"/></radialGradient><radialGradient id="paint4_radial_2_33" cx="0" cy="0" r="1" gradientUnits="userSpaceOnUse" gradientTransform="matrix(1.56845 0 0 1.58206 81.081 18.048)"><stop stop-color="#fff"/><stop offset=".131" stop-color="#FBFBFB"/><stop offset=".257" stop-color="#F0F0F0"/><stop offset=".382" stop-color="#DCDCDC"/><stop offset=".505" stop-color="#C1C1C1"/><stop offset=".627" stop-color="#9E9E9E"/><stop offset=".749" stop-color="#727272"/><stop offset=".871" stop-color="#3F3F3F"/><stop offset=".989" stop-color="#060606"/><stop offset="1"/></radialGradient><radialGradient id="paint5_radial_2_33" cx="0" cy="0" r="1" gradientUnits="userSpaceOnUse" gradientTransform="matrix(2.39658 0 0 2.41738 67.606 9.167)"><stop stop-color="#fff"/><stop offset=".131" stop-color="#FBFBFB"/><stop offset=".257" stop-color="#F0F0F0"/><stop offset=".382" stop-color="#DCDCDC"/><stop offset=".505" stop-color="#C1C1C1"/><stop offset=".627" stop-color="#9E9E9E"/><stop offset=".749" stop-color="#727272"/><stop offset=".871" stop-color="#3F3F3F"/><stop offset=".989" stop-color="#060606"/><stop offset="1"/></radialGradient><radialGradient id="paint6_radial_2_33" cx="0" cy="0" r="1" gradientUnits="userSpaceOnUse" gradientTransform="matrix(.71239 0 0 .71857 76.82 35.24)"><stop stop-color="#fff"/><stop offset=".131" stop-color="#FBFBFB"/><stop offset=".257" stop-color="#F0F0F0"/><stop offset=".382" stop-color="#DCDCDC"/><stop offset=".505" stop-color="#C1C1C1"/><stop offset=".627" stop-color="#9E9E9E"/><stop offset=".749" stop-color="#727272"/><stop offset=".871" stop-color="#3F3F3F"/><stop offset=".989" stop-color="#060606"/><stop offset="1"/></radialGradient><radialGradient id="paint7_radial_2_33" cx="0" cy="0" r="1" gradientUnits="userSpaceOnUse" gradientTransform="matrix(1.44047 0 0 1.45297 66.05 58.084)"><stop stop-color="#fff"/><stop offset=".131" stop-color="#FBFBFB"/><stop offset=".257" stop-color="#F0F0F0"/><stop offset=".382" stop-color="#DCDCDC"/><stop offset=".505" stop-color="#C1C1C1"/><stop offset=".627" stop-color="#9E9E9E"/><stop offset=".749" stop-color="#727272"/><stop offset=".871" stop-color="#3F3F3F"/><stop offset=".989" stop-color="#060606"/><stop offset="1"/></radialGradient><radialGradient id="paint8_radial_2_33" cx="0" cy="0" r="1" gradientUnits="userSpaceOnUse" gradientTransform="matrix(1.05432 0 0 1.06347 42.636 41.623)"><stop stop-color="#fff"/><stop offset=".131" stop-color="#FBFBFB"/><stop offset=".257" stop-color="#F0F0F0"/><stop offset=".382" stop-color="#DCDCDC"/><stop offset=".505" stop-color="#C1C1C1"/><stop offset=".627" stop-color="#9E9E9E"/><stop offset=".749" stop-color="#727272"/><stop offset=".871" stop-color="#3F3F3F"/><stop offset=".989" stop-color="#060606"/><stop offset="1"/></radialGradient><radialGradient id="paint9_radial_2_33" cx="0" cy="0" r="1" gradientUnits="userSpaceOnUse" gradientTransform="matrix(.99023 0 0 .99881 53.087 56.606)"><stop stop-color="#fff"/><stop offset=".131" stop-color="#FBFBFB"/><stop offset=".257" stop-color="#F0F0F0"/><stop offset=".382" stop-color="#DCDCDC"/><stop offset=".505" stop-color="#C1C1C1"/><stop offset=".627" stop-color="#9E9E9E"/><stop offset=".749" stop-color="#727272"/><stop offset=".871" stop-color="#3F3F3F"/><stop offset=".989" stop-color="#060606"/><stop offset="1"/></radialGradient><radialGradient id="paint10_radial_2_33" cx="0" cy="0" r="1" gradientUnits="userSpaceOnUse" gradientTransform="matrix(.76755 0 0 .77421 42.791 53.196)"><stop stop-color="#fff"/><stop offset=".131" stop-color="#FBFBFB"/><stop offset=".257" stop-color="#F0F0F0"/><stop offset=".382" stop-color="#DCDCDC"/><stop offset=".505" stop-color="#C1C1C1"/><stop offset=".627" stop-color="#9E9E9E"/><stop offset=".749" stop-color="#727272"/><stop offset=".871" stop-color="#3F3F3F"/><stop offset=".989" stop-color="#060606"/><stop offset="1"/></radialGradient><radialGradient id="paint11_radial_2_33" cx="0" cy="0" r="1" gradientUnits="userSpaceOnUse" gradientTransform="matrix(1.17277 0 0 1.18294 63.62 28.966)"><stop stop-color="#fff"/><stop offset=".131" stop-color="#FBFBFB"/><stop offset=".257" stop-color="#F0F0F0"/><stop offset=".382" stop-color="#DCDCDC"/><stop offset=".505" stop-color="#C1C1C1"/><stop offset=".627" stop-color="#9E9E9E"/><stop offset=".749" stop-color="#727272"/><stop offset=".871" stop-color="#3F3F3F"/><stop offset=".989" stop-color="#060606"/><stop offset="1"/></radialGradient><radialGradient id="paint12_radial_2_33" cx="0" cy="0" r="1" gradientUnits="userSpaceOnUse" gradientTransform="matrix(.9108 0 0 .9187 45.861 25.359)"><stop stop-color="#fff"/><stop offset=".131" stop-color="#FBFBFB"/><stop offset=".257" stop-color="#F0F0F0"/><stop offset=".382" stop-color="#DCDCDC"/><stop offset=".505" stop-color="#C1C1C1"/><stop offset=".627" stop-color="#9E9E9E"/><stop offset=".749" stop-color="#727272"/><stop offset=".871" stop-color="#3F3F3F"/><stop offset=".989" stop-color="#060606"/><stop offset="1"/></radialGradient><radialGradient id="paint13_radial_2_33" cx="0" cy="0" r="1" gradientUnits="userSpaceOnUse" gradientTransform="matrix(1.29148 0 0 1.30268 59.483 45.957)"><stop stop-color="#fff"/><stop offset=".131" stop-color="#FBFBFB"/><stop offset=".257" stop-color="#F0F0F0"/><stop offset=".382" stop-color="#DCDCDC"/><stop offset=".505" stop-color="#C1C1C1"/><stop offset=".627" stop-color="#9E9E9E"/><stop offset=".749" stop-color="#727272"/><stop offset=".871" stop-color="#3F3F3F"/><stop offset=".989" stop-color="#060606"/><stop offset="1"/></radialGradient><radialGradient id="paint14_radial_2_33" cx="0" cy="0" r="1" gradientUnits="userSpaceOnUse" gradientTransform="matrix(1.20959 0 0 1.22008 56.436 59.179)"><stop stop-color="#fff"/><stop offset=".131" stop-color="#FBFBFB"/><stop offset=".257" stop-color="#F0F0F0"/><stop offset=".382" stop-color="#DCDCDC"/><stop offset=".505" stop-color="#C1C1C1"/><stop offset=".627" stop-color="#9E9E9E"/><stop offset=".749" stop-color="#727272"/><stop offset=".871" stop-color="#3F3F3F"/><stop offset=".989" stop-color="#060606"/><stop offset="1"/></radialGradient><radialGradient id="paint15_radial_2_33" cx="0" cy="0" r="1" gradientUnits="userSpaceOnUse" gradientTransform="matrix(1.14071 0 0 1.15061 41.966 59.346)"><stop stop-color="#fff"/><stop offset=".131" stop-color="#FBFBFB"/><stop offset=".257" stop-color="#F0F0F0"/><stop offset=".382" stop-color="#DCDCDC"/><stop offset=".505" stop-color="#C1C1C1"/><stop offset=".627" stop-color="#9E9E9E"/><stop offset=".749" stop-color="#727272"/><stop offset=".871" stop-color="#3F3F3F"/><stop offset=".989" stop-color="#060606"/><stop offset="1"/></radialGradient><radialGradient id="paint16_radial_2_33" cx="0" cy="0" r="1" gradientUnits="userSpaceOnUse" gradientTransform="matrix(1.10228 0 0 1.11184 32.399 51.78)"><stop stop-color="#fff"/><stop offset=".131" stop-color="#FBFBFB"/><stop offset=".257" stop-color="#F0F0F0"/><stop offset=".382" stop-color="#DCDCDC"/><stop offset=".505" stop-color="#C1C1C1"/><stop offset=".627" stop-color="#9E9E9E"/><stop offset=".749" stop-color="#727272"/><stop offset=".871" stop-color="#3F3F3F"/><stop offset=".989" stop-color="#060606"/><stop offset="1"/></radialGradient><radialGradient id="paint17_radial_2_33" cx="0" cy="0" r="1" gradientUnits="userSpaceOnUse" gradientTransform="matrix(.56994 0 0 .57489 31.5 41.083)"><stop stop-color="#fff"/><stop offset=".131" stop-color="#FBFBFB"/><stop offset=".257" stop-color="#F0F0F0"/><stop offset=".382" stop-color="#DCDCDC"/><stop offset=".505" stop-color="#C1C1C1"/><stop offset=".627" stop-color="#9E9E9E"/><stop offset=".749" stop-color="#727272"/><stop offset=".871" stop-color="#3F3F3F"/><stop offset=".989" stop-color="#060606"/><stop offset="1"/></radialGradient><radialGradient id="paint18_radial_2_33" cx="0" cy="0" r="1" gradientUnits="userSpaceOnUse" gradientTransform="matrix(.45185 -.08368 .08436 .45551 33.625 35.217)"><stop stop-color="#fff"/><stop offset=".131" stop-color="#FBFBFB"/><stop offset=".257" stop-color="#F0F0F0"/><stop offset=".382" stop-color="#DCDCDC"/><stop offset=".505" stop-color="#C1C1C1"/><stop offset=".627" stop-color="#9E9E9E"/><stop offset=".749" stop-color="#727272"/><stop offset=".871" stop-color="#3F3F3F"/><stop offset=".989" stop-color="#060606"/><stop offset="1"/></radialGradient><radialGradient id="paint19_radial_2_33" cx="0" cy="0" r="1" gradientUnits="userSpaceOnUse" gradientTransform="matrix(.89183 0 0 .89957 35.158 24.912)"><stop stop-color="#fff"/><stop offset=".131" stop-color="#FBFBFB"/><stop offset=".257" stop-color="#F0F0F0"/><stop offset=".382" stop-color="#DCDCDC"/><stop offset=".505" stop-color="#C1C1C1"/><stop offset=".627" stop-color="#9E9E9E"/><stop offset=".749" stop-color="#727272"/><stop offset=".871" stop-color="#3F3F3F"/><stop offset=".989" stop-color="#060606"/><stop offset="1"/></radialGradient><radialGradient id="paint20_radial_2_33" cx="0" cy="0" r="1" gradientUnits="userSpaceOnUse" gradientTransform="matrix(1.20019 0 0 1.2106 75.904 48.561)"><stop stop-color="#fff"/><stop offset=".131" stop-color="#FBFBFB"/><stop offset=".257" stop-color="#F0F0F0"/><stop offset=".382" stop-color="#DCDCDC"/><stop offset=".505" stop-color="#C1C1C1"/><stop offset=".627" stop-color="#9E9E9E"/><stop offset=".749" stop-color="#727272"/><stop offset=".871" stop-color="#3F3F3F"/><stop offset=".989" stop-color="#060606"/><stop offset="1"/></radialGradient><radialGradient id="paint21_radial_2_33" cx="0" cy="0" r="1" gradientUnits="userSpaceOnUse" gradientTransform="matrix(.57965 0 0 .58467 75.966 41.398)"><stop stop-color="#fff"/><stop offset=".131" stop-color="#FBFBFB"/><stop offset=".257" stop-color="#F0F0F0"/><stop offset=".382" stop-color="#DCDCDC"/><stop offset=".505" stop-color="#C1C1C1"/><stop offset=".627" stop-color="#9E9E9E"/><stop offset=".749" stop-color="#727272"/><stop offset=".871" stop-color="#3F3F3F"/><stop offset=".989" stop-color="#060606"/><stop offset="1"/></radialGradient><radialGradient id="paint22_radial_2_33" cx="0" cy="0" r="1" gradientUnits="userSpaceOnUse" gradientTransform="matrix(.4695 0 0 .47357 64.761 14.416)"><stop stop-color="#fff"/><stop offset=".131" stop-color="#FBFBFB"/><stop offset=".257" stop-color="#F0F0F0"/><stop offset=".382" stop-color="#DCDCDC"/><stop offset=".505" stop-color="#C1C1C1"/><stop offset=".627" stop-color="#9E9E9E"/><stop offset=".749" stop-color="#727272"/><stop offset=".871" stop-color="#3F3F3F"/><stop offset=".989" stop-color="#060606"/><stop offset="1"/></radialGradient><radialGradient id="paint23_radial_2_33" cx="0" cy="0" r="1" gradientUnits="userSpaceOnUse" gradientTransform="matrix(.62148 0 0 .62687 59.062 12.039)"><stop stop-color="#fff"/><stop offset=".131" stop-color="#FBFBFB"/><stop offset=".257" stop-color="#F0F0F0"/><stop offset=".382" stop-color="#DCDCDC"/><stop offset=".505" stop-color="#C1C1C1"/><stop offset=".627" stop-color="#9E9E9E"/><stop offset=".749" stop-color="#727272"/><stop offset=".871" stop-color="#3F3F3F"/><stop offset=".989" stop-color="#060606"/><stop offset="1"/></radialGradient><radialGradient id="paint24_radial_2_33" cx="0" cy="0" r="1" gradientUnits="userSpaceOnUse" gradientTransform="matrix(.986 0 0 .99456 10.238 52.53)"><stop stop-color="#fff"/><stop offset=".131" stop-color="#FBFBFB"/><stop offset=".257" stop-color="#F0F0F0"/><stop offset=".382" stop-color="#DCDCDC"/><stop offset=".505" stop-color="#C1C1C1"/><stop offset=".627" stop-color="#9E9E9E"/><stop offset=".749" stop-color="#727272"/><stop offset=".871" stop-color="#3F3F3F"/><stop offset=".989" stop-color="#060606"/><stop offset="1"/></radialGradient><radialGradient id="paint25_radial_2_33" cx="0" cy="0" r="1" gradientUnits="userSpaceOnUse" gradientTransform="matrix(1.10622 0 0 1.11583 1.1 59.37)"><stop stop-color="#fff"/><stop offset=".131" stop-color="#FBFBFB"/><stop offset=".257" stop-color="#F0F0F0"/><stop offset=".382" stop-color="#DCDCDC"/><stop offset=".505" stop-color="#C1C1C1"/><stop offset=".627" stop-color="#9E9E9E"/><stop offset=".749" stop-color="#727272"/><stop offset=".871" stop-color="#3F3F3F"/><stop offset=".989" stop-color="#060606"/><stop offset="1"/></radialGradient><radialGradient id="paint26_radial_2_33" cx="0" cy="0" r="1" gradientUnits="userSpaceOnUse" gradientTransform="matrix(1.49376 0 0 1.50672 24.093 65.466)"><stop stop-color="#fff"/><stop offset=".131" stop-color="#FBFBFB"/><stop offset=".257" stop-color="#F0F0F0"/><stop offset=".382" stop-color="#DCDCDC"/><stop offset=".505" stop-color="#C1C1C1"/><stop offset=".627" stop-color="#9E9E9E"/><stop offset=".749" stop-color="#727272"/><stop offset=".871" stop-color="#3F3F3F"/><stop offset=".989" stop-color="#060606"/><stop offset="1"/></radialGradient><radialGradient id="paint27_radial_2_33" cx="0" cy="0" r="1" gradientUnits="userSpaceOnUse" gradientTransform="matrix(.74342 0 0 .74987 .963 52.524)"><stop stop-color="#fff"/><stop offset=".131" stop-color="#FBFBFB"/><stop offset=".257" stop-color="#F0F0F0"/><stop offset=".382" stop-color="#DCDCDC"/><stop offset=".505" stop-color="#C1C1C1"/><stop offset=".627" stop-color="#9E9E9E"/><stop offset=".749" stop-color="#727272"/><stop offset=".871" stop-color="#3F3F3F"/><stop offset=".989" stop-color="#060606"/><stop offset="1"/></radialGradient><radialGradient id="paint28_radial_2_33" cx="0" cy="0" r="1" gradientUnits="userSpaceOnUse" gradientTransform="matrix(1.04751 0 0 1.0566 18.038 44.703)"><stop stop-color="#fff"/><stop offset=".131" stop-color="#FBFBFB"/><stop offset=".257" stop-color="#F0F0F0"/><stop offset=".382" stop-color="#DCDCDC"/><stop offset=".505" stop-color="#C1C1C1"/><stop offset=".627" stop-color="#9E9E9E"/><stop offset=".749" stop-color="#727272"/><stop offset=".871" stop-color="#3F3F3F"/><stop offset=".989" stop-color="#060606"/><stop offset="1"/></radialGradient><radialGradient id="paint29_radial_2_33" cx="0" cy="0" r="1" gradientUnits="userSpaceOnUse" gradientTransform="matrix(.99815 0 0 1.00681 29.314 33.135)"><stop stop-color="#fff"/><stop offset=".131" stop-color="#FBFBFB"/><stop offset=".257" stop-color="#F0F0F0"/><stop offset=".382" stop-color="#DCDCDC"/><stop offset=".505" stop-color="#C1C1C1"/><stop offset=".627" stop-color="#9E9E9E"/><stop offset=".749" stop-color="#727272"/><stop offset=".871" stop-color="#3F3F3F"/><stop offset=".989" stop-color="#060606"/><stop offset="1"/></radialGradient><radialGradient id="paint30_radial_2_33" cx="0" cy="0" r="1" gradientUnits="userSpaceOnUse" gradientTransform="matrix(1.20454 0 0 1.21499 28.41 44.697)"><stop stop-color="#fff"/><stop offset=".131" stop-color="#FBFBFB"/><stop offset=".257" stop-color="#F0F0F0"/><stop offset=".382" stop-color="#DCDCDC"/><stop offset=".505" stop-color="#C1C1C1"/><stop offset=".627" stop-color="#9E9E9E"/><stop offset=".749" stop-color="#727272"/><stop offset=".871" stop-color="#3F3F3F"/><stop offset=".989" stop-color="#060606"/><stop offset="1"/></radialGradient><radialGradient id="paint31_radial_2_33" cx="0" cy="0" r="1" gradientUnits="userSpaceOnUse" gradientTransform="matrix(.98017 0 0 .98867 41.805 14.294)"><stop stop-color="#fff"/><stop offset=".131" stop-color="#FBFBFB"/><stop offset=".257" stop-color="#F0F0F0"/><stop offset=".382" stop-color="#DCDCDC"/><stop offset=".505" stop-color="#C1C1C1"/><stop offset=".627" stop-color="#9E9E9E"/><stop offset=".749" stop-color="#727272"/><stop offset=".871" stop-color="#3F3F3F"/><stop offset=".989" stop-color="#060606"/><stop offset="1"/></radialGradient><radialGradient id="paint32_radial_2_33" cx="0" cy="0" r="1" gradientUnits="userSpaceOnUse" gradientTransform="matrix(.923 0 0 .93102 44.807 12.777)"><stop stop-color="#fff"/><stop offset=".131" stop-color="#FBFBFB"/><stop offset=".257" stop-color="#F0F0F0"/><stop offset=".382" stop-color="#DCDCDC"/><stop offset=".505" stop-color="#C1C1C1"/><stop offset=".627" stop-color="#9E9E9E"/><stop offset=".749" stop-color="#727272"/><stop offset=".871" stop-color="#3F3F3F"/><stop offset=".989" stop-color="#060606"/><stop offset="1"/></radialGradient><radialGradient id="paint33_radial_2_33" cx="0" cy="0" r="1" gradientUnits="userSpaceOnUse" gradientTransform="matrix(.76134 0 0 .76795 30.915 21.33)"><stop stop-color="#fff"/><stop offset=".131" stop-color="#FBFBFB"/><stop offset=".257" stop-color="#F0F0F0"/><stop offset=".382" stop-color="#DCDCDC"/><stop offset=".505" stop-color="#C1C1C1"/><stop offset=".627" stop-color="#9E9E9E"/><stop offset=".749" stop-color="#727272"/><stop offset=".871" stop-color="#3F3F3F"/><stop offset=".989" stop-color="#060606"/><stop offset="1"/></radialGradient><radialGradient id="paint34_radial_2_33" cx="0" cy="0" r="1" gradientUnits="userSpaceOnUse" gradientTransform="matrix(.73598 0 0 .74237 47.908 16.343)"><stop stop-color="#fff"/><stop offset=".131" stop-color="#FBFBFB"/><stop offset=".257" stop-color="#F0F0F0"/><stop offset=".382" stop-color="#DCDCDC"/><stop offset=".505" stop-color="#C1C1C1"/><stop offset=".627" stop-color="#9E9E9E"/><stop offset=".749" stop-color="#727272"/><stop offset=".871" stop-color="#3F3F3F"/><stop offset=".989" stop-color="#060606"/><stop offset="1"/></radialGradient><radialGradient id="paint35_radial_2_33" cx="0" cy="0" r="1" gradientUnits="userSpaceOnUse" gradientTransform="matrix(.70546 0 0 .71158 74.007 23.821)"><stop stop-color="#fff"/><stop offset=".131" stop-color="#FBFBFB"/><stop offset=".257" stop-color="#F0F0F0"/><stop offset=".382" stop-color="#DCDCDC"/><stop offset=".505" stop-color="#C1C1C1"/><stop offset=".627" stop-color="#9E9E9E"/><stop offset=".749" stop-color="#727272"/><stop offset=".871" stop-color="#3F3F3F"/><stop offset=".989" stop-color="#060606"/><stop offset="1"/></radialGradient><radialGradient id="paint36_radial_2_33" cx="0" cy="0" r="1" gradientUnits="userSpaceOnUse" gradientTransform="matrix(1.00634 0 0 1.01507 78.267 28.36)"><stop stop-color="#fff"/><stop offset=".131" stop-color="#FBFBFB"/><stop offset=".257" stop-color="#F0F0F0"/><stop offset=".382" stop-color="#DCDCDC"/><stop offset=".505" stop-color="#C1C1C1"/><stop offset=".627" stop-color="#9E9E9E"/><stop offset=".749" stop-color="#727272"/><stop offset=".871" stop-color="#3F3F3F"/><stop offset=".989" stop-color="#060606"/><stop offset="1"/></radialGradient><radialGradient id="paint37_radial_2_33" cx="0" cy="0" r="1" gradientUnits="userSpaceOnUse" gradientTransform="matrix(1.01143 0 0 1.0202 72.566 4.15)"><stop stop-color="#fff"/><stop offset=".131" stop-color="#FBFBFB"/><stop offset=".257" stop-color="#F0F0F0"/><stop offset=".382" stop-color="#DCDCDC"/><stop offset=".505" stop-color="#C1C1C1"/><stop offset=".627" stop-color="#9E9E9E"/><stop offset=".749" stop-color="#727272"/><stop offset=".871" stop-color="#3F3F3F"/><stop offset=".989" stop-color="#060606"/><stop offset="1"/></radialGradient><radialGradient id="paint38_radial_2_33" cx="0" cy="0" r="1" gradientUnits="userSpaceOnUse" gradientTransform="matrix(.74566 0 0 .75213 78.104 13.54)"><stop stop-color="#fff"/><stop offset=".131" stop-color="#FBFBFB"/><stop offset=".257" stop-color="#F0F0F0"/><stop offset=".382" stop-color="#DCDCDC"/><stop offset=".505" stop-color="#C1C1C1"/><stop offset=".627" stop-color="#9E9E9E"/><stop offset=".749" stop-color="#727272"/><stop offset=".871" stop-color="#3F3F3F"/><stop offset=".989" stop-color="#060606"/><stop offset="1"/></radialGradient></defs></svg>