<svg width="516" height="76" fill="none" xmlns="http://www.w3.org/2000/svg"><path d="M485.937 0H46.063C29.865 0 16.704 12.1 16.704 26.994v27.46c0 9.774-6.58 18.151-16.704 20.944h485.937c16.198 0 29.359-12.101 29.359-26.994v-21.41C515.296 12.101 502.135 0 485.937 0Z" fill="#B1E4FA"/><path d="M491.505 25.598H43.025c-.505 0-1.518-.465-1.518-1.396.506-.466 1.013-.931 1.519-.931h448.479c.506 0 1.519.465 1.519 1.396 0 0-.506.931-1.519.931ZM297.636 52.127H43.026c-.507 0-1.519-.466-1.519-1.397 0-.465.506-1.396 1.519-1.396h254.61c.507 0 1.519.466 1.519 1.396-.506.931-1.012 1.397-1.519 1.397Z" fill="#fff"/></svg>